<svg version="1.1" width="256px" height="256px" viewBox="0.0 0.0 961.2703412073491 720.0" fill="none" stroke="none" stroke-linecap="square" stroke-miterlimit="10" xmlns:xlink="http://www.w3.org/1999/xlink" xmlns="http://www.w3.org/2000/svg"><clipPath id="p.0"><path d="m0 0l961.2703 0l0 720.0l-961.2703 0l0 -720.0z" clip-rule="nonzero"/></clipPath><g clip-path="url(#p.0)"><path fill="#000000" fill-opacity="0.0" d="m0 0l961.2703 0l0 720.0l-961.2703 0z" fill-rule="evenodd"/><path fill="#4a86e8" d="m195.55643 143.49081l172.6929 0l0 216.50394l-172.6929 0z" fill-rule="evenodd"/><path stroke="#000000" stroke-width="1.0" stroke-linejoin="round" stroke-linecap="butt" d="m195.55643 143.49081l172.6929 0l0 216.50394l-172.6929 0z" fill-rule="evenodd"/><path fill="#4a86e8" d="m589.9711 143.49081l172.69293 0l0 216.50394l-172.69293 0z" fill-rule="evenodd"/><path stroke="#000000" stroke-width="1.0" stroke-linejoin="round" stroke-linecap="butt" d="m589.9711 143.49081l172.69293 0l0 216.50394l-172.69293 0z" fill-rule="evenodd"/><path fill="#ffffff" d="m394.28873 143.49081l172.6929 0l0 492.6929l-172.6929 0z" fill-rule="evenodd"/><path stroke="#000000" stroke-width="1.0" stroke-linejoin="round" stroke-linecap="butt" d="m394.28873 143.49081l172.6929 0l0 492.6929l-172.6929 0z" fill-rule="evenodd"/><path fill="#00ff00" d="m593.021 406.3491l172.69293 0l0 229.82675l-172.69293 0z" fill-rule="evenodd"/><path stroke="#000000" stroke-width="1.0" stroke-linejoin="round" stroke-linecap="butt" d="m593.021 406.3491l172.69293 0l0 229.82675l-172.69293 0z" fill-rule="evenodd"/><path fill="#00ff00" d="m189.9685 412.1916l172.6929 0l0 229.82678l-172.6929 0z" fill-rule="evenodd"/><path stroke="#000000" stroke-width="1.0" stroke-linejoin="round" stroke-linecap="butt" d="m189.9685 412.1916l172.6929 0l0 229.82678l-172.6929 0z" fill-rule="evenodd"/></g></svg>
